# xmcd
#
# Track frame offsets: 
#        150
#        13255
#        31302
#        49212
#        70492
#        86240
#        101230
#        117810
#        130405
#        149130
#        168285
#        182195
#        197630
#        210090
#        228730
#        245690
#        261810
#        274965
#        291065
#        314890
#        316300
#        318365
#        321315
#        322297
#        323237
#        335400
#        336755
#
# Disc length: 4504 seconds
#
# Revision: 8
# Processed by: cddbd v1.5.2PL0 Copyright (c) Steve Scherf et al.
# Submitted via: ExactAudioCopy v1.3
#
DISCID=b911961b
DTITLE=Various Artist - CDX 132 April 1996
DYEAR=1996
DGENRE=Country
TTITLE0=Lorrie Morgan and Jon Randall - By My Side
TTITLE1=Ricky Skaggs - Cat's In The Cradle
TTITLE2=Ray Hood - Freedom
TTITLE3=Wynonna - Heaven Help My Heart
TTITLE4=Vince Gill - High Lonesome Sound
TTITLE5=Alan Jackson - Home
TTITLE6=Hank Williams Jr. - Houston, We Have A Problem
TTITLE7=The Whites - I've Changed The Lock On My Heart's Door
TTITLE8=Mark Collie - Lipstick Don't Lie
TTITLE9=Don Cox - Man Overboard
TTITLE10=Jeff Moore - She's Over You
TTITLE11=Dwight Yokam - Sorry You Asked?
TTITLE12=Ken Mellons - Stranger In Your Eyes
TTITLE13=Garth Brooks - The Change
TTITLE14=Cracker - The Golden Age
TTITLE15=Trace Adkins - There's A Girl In Texas
TTITLE16=Rich McCready - Thinkin' Strait
TTITLE17=Mark Chestnutt - Wrong Place, Wrong Time
TTITLE18=Wynonna - Heaven Help My Heart
TTITLE19=PSA - Ken Mellons - S.A.F.E liner
TTITLE20=PSA - Ken Mellons - S.A.F.E. liner
TTITLE21=PSA - Ken Mellons - S.A.F.E. liner
TTITLE22=Ken Mellons Liner - "Here's My Latest Single"
TTITLE23=Ken Mellons Liner - "Have A Happy Easter"
TTITLE24=PSA - Ken Mellons - S.A.F.E. - Promo Interview
TTITLE25=PSA - Mary Chapin Carpenter - St. Jude Spot
TTITLE26=PSA - Mary Chapin Carpenter - St. Jude Spot
EXTD=
EXTT0=
EXTT1=
EXTT2=
EXTT3=
EXTT4=
EXTT5=
EXTT6=
EXTT7=
EXTT8=
EXTT9=
EXTT10=
EXTT11=
EXTT12=
EXTT13=
EXTT14=
EXTT15=
EXTT16=
EXTT17=
EXTT18=
EXTT19=
EXTT20=
EXTT21=
EXTT22=
EXTT23=
EXTT24=
EXTT25=
EXTT26=
PLAYORDER=
